<?xml version="1.0" encoding="UTF-8" standalone="no"?>
<!DOCTYPE svg PUBLIC "-//W3C//DTD SVG 1.1//EN" "http://www.w3.org/Graphics/SVG/1.1/DTD/svg11.dtd">
<svg width="100%" height="100%" viewBox="0 0 270 270" version="1.1" xmlns="http://www.w3.org/2000/svg" xmlns:xlink="http://www.w3.org/1999/xlink" xml:space="preserve" style="fill-rule:evenodd;clip-rule:evenodd;stroke-linejoin:round;stroke-miterlimit:1.41421;">
    <g transform="matrix(1,0,0,1,-2.37886e-05,-2.37886e-05)">
        <g transform="matrix(1,0,0,1,-15.1019,-15.1019)">
            <path d="M62.3,282.3C37.7,282.3 17.7,262.3 17.7,237.7L17.7,62.3C17.7,37.7 37.7,17.7 62.3,17.7L237.8,17.7C262.4,17.7 282.4,37.7 282.4,62.3L282.4,237.8C282.4,262.4 262.4,282.4 237.8,282.4L62.3,282.4L62.3,282.3Z" style="fill:rgb(105,105,105);fill-rule:nonzero;stroke-width:3px;stroke:rgb(42,42,42);"/>
        </g>
        <g transform="matrix(1,0,0,1.08063,-0.697031,-8.36877)">
            <rect x="64.75" y="89.283" width="28.599" height="45.665" style="fill:white;"/>
        </g>
        <g transform="matrix(1.109,0,0,1.03902,-14.71,-8.35818)">
            <path d="M212.946,159.869C212.946,154.691 209.007,150.486 204.155,150.486L65.741,150.486C60.889,150.486 56.95,154.691 56.95,159.869L56.95,206.163C56.95,211.342 60.889,215.546 65.741,215.546L204.155,215.546C209.007,215.546 212.946,211.342 212.946,206.163L212.946,159.869Z" style="fill:white;"/>
        </g>
        <g transform="matrix(2.59993,0,0,3.39989,-281.738,-1672.94)">
            <path d="M163,537L176,537L176,533L163,533L163,537ZM178,539L161,539L161,531L178,531L178,539Z" style="fill:white;fill-rule:nonzero;"/>
        </g>
        <g transform="matrix(1,0,0,1.30768,-0.697031,-40.6692)">
            <rect x="140.148" y="135" width="38.308" height="12.948" style="fill:white;"/>
        </g>
        <g transform="matrix(1,0,0,1,-0.697031,0.0519238)">
            <rect x="106.349" y="54.35" width="106.597" height="80.598" style="fill:rgb(140,173,231);"/>
        </g>
        <g transform="matrix(2.59993,0,0,2.59993,-281.738,-1248.17)">
            <path d="M151,531L188,531L188,503L151,503L151,531ZM190,533L149,533L149,501L190,501L190,533Z" style="fill:rgb(192,196,215);fill-rule:nonzero;stroke-width:2.31px;stroke:white;"/>
        </g>
        <g transform="matrix(2.59993,0,0,2.59993,-281.738,-1248.17)">
            <path d="M147,539L130,539L130,526L134,526L134,528L132,528L132,537L145,537L145,528L143,528L143,526L147,526L147,539Z" style="fill:rgb(140,173,231);fill-rule:nonzero;"/>
        </g>
        <g transform="matrix(1.21429,0,0,1.10749,-22.3718,-13.3122)">
            <rect x="64.75" y="124.331" width="36.399" height="23.616" style="fill:rgb(140,173,231);"/>
        </g>
        <g transform="matrix(0.934917,0,0,1,9.48636,-1.04692)">
            <rect x="56.253" y="170.456" width="155.996" height="24.779" style="fill:rgb(105,105,105);"/>
        </g>
        <g transform="matrix(0.807194,0,0,0.807194,-51.7776,-135.926)">
            <path d="M260.355,270.393C264.093,270.393 267.133,267.351 267.133,263.614C267.133,259.875 264.093,256.833 260.355,256.833C256.618,256.833 253.579,259.875 253.579,263.614C253.579,267.351 256.618,270.393 260.355,270.393Z" style="fill:white;fill-rule:nonzero;"/>
        </g>
        <g transform="matrix(0.807194,0,0,0.807194,-51.7776,-135.926)">
            <path d="M284.769,291.697C286.794,291.697 288.44,290.052 288.44,288.026C288.44,286.001 286.794,284.353 284.769,284.353C282.744,284.353 281.098,286.001 281.098,288.026C281.098,290.052 282.744,291.697 284.769,291.697Z" style="fill:white;fill-rule:nonzero;"/>
        </g>
        <g transform="matrix(0.807194,0,0,0.807194,-51.7776,-135.926)">
            <path d="M277.617,310.37C277.621,310.37 277.621,310.37 277.625,310.37C278.984,310.367 280.259,309.834 281.204,308.885C283.194,306.91 283.202,303.687 281.208,301.682C279.223,299.708 275.993,299.716 274.025,301.691C272.044,303.672 272.044,306.899 274.025,308.88C274.987,309.84 276.262,310.37 277.617,310.37Z" style="fill:white;fill-rule:nonzero;"/>
        </g>
        <g transform="matrix(0.807194,0,0,0.807194,-51.7776,-135.926)">
            <path d="M260.361,307.074C257.4,307.074 254.991,309.481 254.991,312.437C254.991,315.393 257.4,317.8 260.361,317.8C263.317,317.8 265.721,315.393 265.721,312.437C265.721,309.481 263.317,307.074 260.361,307.074Z" style="fill:white;fill-rule:nonzero;"/>
        </g>
        <g transform="matrix(0.807194,0,0,0.807194,-51.7776,-135.926)">
            <path d="M239.103,301.292C238.035,302.359 237.448,303.778 237.448,305.287C237.448,306.798 238.04,308.219 239.107,309.282C240.206,310.383 241.653,310.932 243.096,310.932C244.543,310.932 245.99,310.381 247.093,309.28C249.286,307.08 249.291,303.498 247.089,301.285C244.883,299.092 241.3,299.09 239.103,301.292Z" style="fill:white;fill-rule:nonzero;"/>
        </g>
        <g transform="matrix(0.807194,0,0,0.807194,-51.7776,-135.926)">
            <path d="M235.944,293.952C239.218,293.952 241.878,291.294 241.878,288.015C241.869,284.75 239.209,282.092 235.948,282.092C232.679,282.092 230.018,284.755 230.018,288.026C230.018,291.294 232.674,293.952 235.944,293.952Z" style="fill:white;fill-rule:nonzero;"/>
        </g>
        <g transform="matrix(0.807194,0,0,0.807194,-51.7776,-135.926)">
            <path d="M243.091,276.97C244.684,276.97 246.281,276.363 247.504,275.15C249.908,272.718 249.904,268.781 247.49,266.372C246.317,265.198 244.755,264.554 243.096,264.554L243.091,264.554C241.428,264.556 239.871,265.202 238.701,266.376C237.528,267.554 236.879,269.118 236.884,270.779C236.888,272.436 237.532,273.991 238.701,275.154C239.91,276.363 241.499,276.97 243.091,276.97Z" style="fill:white;fill-rule:nonzero;"/>
        </g>
    </g>
</svg>
