<?xml version="1.0" encoding="UTF-8" standalone="no"?>
<!DOCTYPE svg PUBLIC "-//W3C//DTD SVG 1.1//EN" "http://www.w3.org/Graphics/SVG/1.1/DTD/svg11.dtd">
<svg width="100%" height="100%" viewBox="0 0 270 270" version="1.1" xmlns="http://www.w3.org/2000/svg" xmlns:xlink="http://www.w3.org/1999/xlink" xml:space="preserve" style="fill-rule:evenodd;clip-rule:evenodd;stroke-linejoin:round;stroke-miterlimit:1.41421;">
    <g transform="matrix(1,0,0,1,-15.1019,-15.1019)">
        <path d="M62.3,282.3C37.7,282.3 17.7,262.3 17.7,237.7L17.7,62.3C17.7,37.7 37.7,17.7 62.3,17.7L237.8,17.7C262.4,17.7 282.4,37.7 282.4,62.3L282.4,237.8C282.4,262.4 262.4,282.4 237.8,282.4L62.3,282.4L62.3,282.3Z" style="fill:rgb(105,105,105);fill-rule:nonzero;stroke-width:3px;stroke:rgb(42,42,42);"/>
    </g>
    <g transform="matrix(1.06072,0,0,1.06072,-8.24925,-8.24925)">
        <g transform="matrix(1.74024,0,0,1.74024,-489.235,-27.6733)">
            <path d="M366.265,53.618C365.387,53.618 364.341,53.825 364.018,53.915L364.018,54.599C364.6,54.522 365.425,54.393 366.303,54.393C368.02,54.393 368.407,54.702 368.407,55.851L368.407,56.264C368.407,57.117 368.368,57.762 366.91,57.762L364.341,57.762L364.341,58.614L366.91,58.614C368.368,58.614 368.407,59.182 368.407,60.059L368.407,60.615C368.407,62.099 367.762,62.331 366.303,62.331C365.425,62.331 364.6,62.203 364.018,62.125L364.018,62.809C364.341,62.9 365.387,63.106 366.265,63.106C368.162,63.106 369.233,62.602 369.233,60.615L369.233,60.046C369.233,59.053 368.937,58.523 368.11,58.175C368.949,57.839 369.233,57.194 369.233,56.264L369.233,55.89C369.233,54.083 368.368,53.618 366.265,53.618ZM358.905,53.618C358.028,53.618 356.982,53.825 356.659,53.915L356.659,54.599C357.24,54.522 358.066,54.393 358.944,54.393C360.662,54.393 361.049,54.742 361.049,55.684L361.049,55.942C361.049,56.678 360.803,57.168 359.332,57.969C357.188,59.143 356.53,59.84 356.53,61.944L356.53,62.964L361.733,62.964L361.733,62.138L357.331,62.138L357.331,61.944C357.331,60.369 357.602,59.814 359.873,58.588C361.721,57.594 361.888,56.781 361.888,55.942L361.888,55.722C361.888,54.096 361.011,53.618 358.905,53.618ZM352.321,53.683L351.715,53.683L349.495,54.418L349.495,55.205L351.509,54.599L351.509,62.163L349.495,62.203L349.495,62.964L354.322,62.964L354.322,62.203L352.321,62.163L352.321,53.683ZM343.435,57.464L342.271,57.043C341.303,56.692 341.036,56.566 341.036,55.934L341.036,55.752C341.036,54.911 341.583,54.84 342.579,54.84C343.589,54.84 344.669,54.896 345.427,54.981L345.427,53.409C344.95,53.311 344.066,53.157 343.084,53.1C343.084,53.1 342.907,53.073 341.866,53.122C342.542,53.069 342.904,52.851 343.084,52.69L343.084,51.711L341.148,51.711L341.148,53.128C339.464,53.297 338.566,53.943 338.566,55.654L338.566,55.991C338.566,57.604 339.282,58.278 340.882,58.852L342.046,59.274C343.309,59.737 343.379,60.003 343.379,60.551L343.379,60.761C343.379,61.561 342.902,61.729 341.779,61.729C340.685,61.729 339.493,61.645 338.805,61.603L338.805,63.188C339.31,63.3 340.166,63.413 341.148,63.469L341.148,65.013L343.084,65.013L343.084,63.777C342.746,63.676 342.333,63.565 341.906,63.484C341.906,63.484 342.431,63.543 343.084,63.469C344.782,63.328 345.891,62.683 345.891,60.818L345.891,60.452C345.891,58.657 345.161,58.096 343.435,57.464ZM380.837,49.475C380.837,50.537 379.97,51.406 378.907,51.406L375.503,51.406C374.633,51.406 373.894,50.822 373.654,50.026L373.632,50.027C373.632,50.027 373.938,52.085 376.2,52.085C376.579,52.085 376.911,52.17 377.206,52.308L377.206,54.989L378.907,54.989C379.97,54.989 380.837,55.857 380.837,56.919L380.837,57.826C380.837,58.887 379.97,59.756 378.907,59.756L375.503,59.756C374.633,59.756 373.894,59.172 373.654,58.376L373.632,58.376C373.632,58.376 373.938,60.435 376.2,60.435C376.579,60.435 376.911,60.52 377.206,60.659L377.206,63.339L378.907,63.339C379.97,63.339 380.837,64.207 380.837,65.27L380.837,66.176C380.837,67.238 379.97,68.107 378.907,68.107L375.503,68.107C374.633,68.107 373.894,67.522 373.654,66.727L373.632,66.727C373.632,66.727 373.938,68.786 376.2,68.786C376.579,68.786 376.911,68.87 377.206,69.01L377.206,70.548C377.206,71.919 376.083,73.041 374.711,73.041L335.664,73.041C334.292,73.041 333.169,71.919 333.169,70.548L333.169,46.177C333.169,44.805 334.292,43.682 335.664,43.682L374.711,43.682C376.083,43.682 377.206,44.805 377.206,46.177L377.206,46.638L378.907,46.638C379.97,46.638 380.837,47.506 380.837,48.569L380.837,49.475ZM376.827,82.991C376.827,84.084 375.933,84.978 374.841,84.978L368.146,84.978C367.052,84.978 366.158,84.084 366.158,82.991L366.158,79.487C366.158,78.393 367.052,77.499 368.146,77.499L374.841,77.499C375.933,77.499 376.827,78.393 376.827,79.487L376.827,82.991ZM376.827,92.921C376.827,94.014 375.933,94.909 374.841,94.909L368.146,94.909C367.052,94.909 366.158,94.014 366.158,92.921L366.158,89.417C366.158,88.324 367.052,87.43 368.146,87.43L374.841,87.43C375.933,87.43 376.827,88.324 376.827,89.417L376.827,92.921ZM376.827,102.85C376.827,103.944 375.933,104.839 374.841,104.839L368.146,104.839C367.052,104.839 366.158,103.944 366.158,102.85L366.158,99.348C366.158,98.254 367.052,97.36 368.146,97.36L374.841,97.36C375.933,97.36 376.827,98.254 376.827,99.348L376.827,102.85ZM362.339,82.991C362.339,84.084 361.444,84.978 360.351,84.978L353.655,84.978C352.563,84.978 351.668,84.084 351.668,82.991L351.668,79.487C351.668,78.393 352.563,77.499 353.655,77.499L360.351,77.499C361.444,77.499 362.339,78.393 362.339,79.487L362.339,82.991ZM362.339,92.921C362.339,94.014 361.444,94.909 360.351,94.909L353.655,94.909C352.563,94.909 351.668,94.014 351.668,92.921L351.668,89.417C351.668,88.324 352.563,87.43 353.655,87.43L360.351,87.43C361.444,87.43 362.339,88.324 362.339,89.417L362.339,92.921ZM362.339,102.85C362.339,103.944 361.444,104.839 360.351,104.839L353.655,104.839C352.563,104.839 351.668,103.944 351.668,102.85L351.668,99.348C351.668,98.254 352.563,97.36 353.655,97.36L360.351,97.36C361.444,97.36 362.339,98.254 362.339,99.348L362.339,102.85ZM362.339,112.781C362.339,113.874 361.444,114.768 360.351,114.768L353.655,114.768C352.563,114.768 351.668,113.874 351.668,112.781L351.668,109.277C351.668,108.184 352.563,107.29 353.655,107.29L360.351,107.29C361.444,107.29 362.339,108.184 362.339,109.277L362.339,112.781ZM347.849,82.991C347.849,84.084 346.955,84.978 345.861,84.978L339.167,84.978C338.074,84.978 337.18,84.084 337.18,82.991L337.18,79.487C337.18,78.393 338.074,77.499 339.167,77.499L345.861,77.499C346.955,77.499 347.849,78.393 347.849,79.487L347.849,82.991ZM347.849,92.921C347.849,94.014 346.955,94.909 345.861,94.909L339.167,94.909C338.074,94.909 337.18,94.014 337.18,92.921L337.18,89.417C337.18,88.324 338.074,87.43 339.167,87.43L345.861,87.43C346.955,87.43 347.849,88.324 347.849,89.417L347.849,92.921ZM347.849,102.85C347.849,103.944 346.955,104.839 345.861,104.839L339.167,104.839C338.074,104.839 337.18,103.944 337.18,102.85L337.18,99.348C337.18,98.254 338.074,97.36 339.167,97.36L345.861,97.36C346.955,97.36 347.849,98.254 347.849,99.348L347.849,102.85ZM380.875,36.8L333.132,36.8C329.825,36.8 327.12,39.506 327.12,42.813L327.12,46.596L325.454,46.596C324.14,46.596 323.065,47.671 323.065,48.985L323.065,72.376C323.065,73.674 324.114,74.736 325.405,74.764C325.951,71.637 326.653,66.506 327.12,58.997L327.12,72.96C327.12,76.267 327.225,81.677 327.354,84.981L328.546,115.642C328.659,118.542 330.837,120.978 333.604,121.531L333.604,142.827C333.609,146.866 336.892,150.149 340.931,150.155L373.077,150.155C377.115,150.149 380.4,146.866 380.405,142.827L380.405,125.938C379.671,125.741 378.83,125.547 377.903,125.357L377.903,142.827C377.902,144.153 377.363,145.353 376.484,146.234C375.604,147.113 374.404,147.652 373.077,147.652L371.057,147.652L371.057,124.214C367.376,123.696 363.249,123.23 359.188,122.842L359.188,147.652L340.931,147.652C339.605,147.652 338.405,147.113 337.525,146.234C336.646,145.353 336.106,144.153 336.106,142.827L336.106,121.651L379.215,121.651C382.521,121.651 385.333,118.947 385.462,115.643L386.652,85.233C386.782,81.929 386.888,76.519 386.888,73.213L386.888,42.813C386.888,39.506 384.182,36.8 380.875,36.8ZM391.822,50.342L390.138,67.459L390.138,109.775L394.347,109.775L394.347,50.342L391.822,50.342Z" style="fill:white;fill-rule:nonzero;"/>
        </g>
        <g transform="matrix(1.74024,0,0,1.74024,-489.235,-27.6733)">
            <path d="M347.849,112.781C347.849,113.874 346.955,114.768 345.861,114.768L339.167,114.768C338.074,114.768 337.18,113.874 337.18,112.781L337.18,109.277C337.18,108.184 338.074,107.29 339.167,107.29L345.861,107.29C346.955,107.29 347.849,108.184 347.849,109.277L347.849,112.781Z" style="fill:rgb(140,173,231);fill-rule:nonzero;"/>
        </g>
        <g transform="matrix(1.74024,0,0,1.74024,-489.235,-27.6733)">
            <path d="M376.827,112.781C376.827,113.874 375.933,114.768 374.841,114.768L368.146,114.768C367.052,114.768 366.158,113.874 366.158,112.781L366.158,109.277C366.158,108.184 367.052,107.29 368.146,107.29L374.841,107.29C375.933,107.29 376.827,108.184 376.827,109.277L376.827,112.781Z" style="fill:rgb(140,173,231);fill-rule:nonzero;"/>
        </g>
        <g transform="matrix(1,0,0,1,-0.682789,-0.560384)">
            <rect x="96.279" y="57.977" width="61.655" height="33.181" style="fill:rgb(105,105,105);"/>
        </g>
    </g>
</svg>
