<?xml version="1.0" encoding="utf-8"?>
<!-- Generator: Adobe Illustrator 16.0.0, SVG Export Plug-In . SVG Version: 6.00 Build 0)  -->
<!DOCTYPE svg PUBLIC "-//W3C//DTD SVG 1.1//EN" "http://www.w3.org/Graphics/SVG/1.1/DTD/svg11.dtd">
<svg version="1.1" id="Layer_1" xmlns="http://www.w3.org/2000/svg" xmlns:xlink="http://www.w3.org/1999/xlink" fill="#fff" height="100%" viewBox="0 0 256.72 55.54" width="100%" style=""><g><g><path d="M352.26,258.41h11.48c5.74,0,10.08,2.5,10.08,7.76,0,3.54-2.32,5.8-5.68,6.84v.06a7.66,7.66,0,0,1,7.15,7.76c0,5.56-5.19,8.67-11.67,8.67H352.26Zm4.46,12.89h6.11c3.42,0,6.17-1.28,6.17-4.64,0-2.44-1.65-4.58-5.25-4.58h-7.08v9.22Zm0,14.54h6.6c2.69,0,7.15-.86,7.15-5.25,0-3.66-2.75-5.56-7.08-5.56h-6.66Z" transform="translate(-351 -253)"></path><path d="M383.29,258.41v19.06c0,3.85,2.08,8.86,8.31,8.86s8.31-5,8.31-8.86V258.41h4.52v19.73c0,7.21-5.56,12.15-12.83,12.15s-12.83-4.95-12.83-12.15V258.41Z" transform="translate(-351 -253)"></path><path d="M417.8,276.24l-12.52-17.83H411l9,13.68,9.28-13.68h5.5l-12.52,17.83v13.25H417.8Z" transform="translate(-351 -253)"></path><path d="M436.24,258.41h21.38v4H440.76v9.28h15.7v4h-15.7v10h17.71v4H436.24Z" transform="translate(-351 -253)"></path><path d="M462.5,258.41h11.67c8.49,0,10.63,4.76,10.63,8.73s-3.11,7.7-8.12,8.25l9.41,14.23H480.4L472,275.87h-5v13.74h-4.52V258.41ZM467,272.09h5.86c3.54,0,7.08-.79,7.08-5s-3.54-5-7.08-5H467Z" transform="translate(-351 -253)"></path></g><g><path d="M487.42,285.58l17.71-23.21H488v-4h22.48v4L492.8,285.58h17.89v4H487.42Z" transform="translate(-351 -253)"></path><path d="M548.25,258.41h5.56L571,284H571V258.41h4.21v31.15h-5.37L552.53,264h-.06v25.59h-4.21Z" transform="translate(-351 -253)"></path><path d="M581,258.41h20.09v4H585.26v9.28H600v4H585.26v10h16.67v4H581Z" transform="translate(-351 -253)"></path></g><g><path d="M517,282.23l2.57.12a13.45,13.45,0,0,1-2.75-7.63c-.43-7.15,4.28-13.19,11.54-13.62a11.88,11.88,0,0,1,8.25,2.5l2.87.12.24-2.44a16.32,16.32,0,0,0-11.48-3.6c-9.47.55-15.82,7.88-15.27,17.28A16.89,16.89,0,0,0,516.92,285Z" transform="translate(-351 -253)"></path><path d="M541.17,262.74l-.24,2.69-2.63-.12a13.68,13.68,0,0,1,3.05,8c.43,7.15-4.28,13.19-11.54,13.62a12.06,12.06,0,0,1-8.67-2.87l-2.63-.12-.24,2.57A16.13,16.13,0,0,0,530,290.29c9.47-.55,15.82-7.88,15.27-17.28A16.2,16.2,0,0,0,541.17,262.74Z" fill="#3e91ec" transform="translate(-351 -253)"></path></g><path d="M601.51,256.33a2.16,2.16,0,0,1,.18-.86,2.71,2.71,0,0,1,.49-.67,2.2,2.2,0,0,1,.73-.49,2.23,2.23,0,0,1,.92-.18,2.45,2.45,0,0,1,.92.18,1.56,1.56,0,0,1,.73.49,2.71,2.71,0,0,1,.49.67,2,2,0,0,1,.18.86,2.15,2.15,0,0,1-.18.86,2.71,2.71,0,0,1-.49.67,2.2,2.2,0,0,1-.73.49,2.23,2.23,0,0,1-.92.18,2.45,2.45,0,0,1-.92-.18,1.56,1.56,0,0,1-.73-.49,2.71,2.71,0,0,1-.49-.67A2,2,0,0,1,601.51,256.33Zm.37,0a2.2,2.2,0,0,0,.12.67,1.33,1.33,0,0,0,.43.55,1.27,1.27,0,0,0,.61.37,1.55,1.55,0,0,0,.73.12,3.06,3.06,0,0,0,.73-.12,5.37,5.37,0,0,0,.61-.37,3.36,3.36,0,0,0,.43-.55,1.32,1.32,0,0,0,.12-.67,2.2,2.2,0,0,0-.12-.67,1.33,1.33,0,0,0-.43-.55,1.27,1.27,0,0,0-.61-.37,1.55,1.55,0,0,0-.73-.12,3.06,3.06,0,0,0-.73.12,5.37,5.37,0,0,0-.61.37,3.36,3.36,0,0,0-.43.55A2.2,2.2,0,0,0,601.88,256.33Zm1-1.22h1a1.3,1.3,0,0,1,.73.18.77.77,0,0,1,.24.55.6.6,0,0,1-.18.49.55.55,0,0,1-.43.18l.67,1h-.49l-.67-1h-.37v1H603v-2.44Zm.49,1H604a.22.22,0,0,0,.18-.06.13.13,0,0,0,.12-.12.31.31,0,0,0,0-.37l-.12-.12c-.06,0-.12-.06-.18-.06h-.61Z" transform="translate(-351 -253)"></path><path d="M427.32,306.45c-.19,0-.39.1-.77.1-1,0-1.26-.39-1.36-1.07a2.68,2.68,0,0,1-2.42,1.07c-1.65,0-2.71-.77-2.71-2.42a2.18,2.18,0,0,1,.48-1.45,4.66,4.66,0,0,1,2.61-1.07l1.36-.19c.48-.1.68-.19.68-.48v-.19c0-.87-.29-1.36-1.65-1.36s-1.84.68-1.84,1.65l-1.36-.19c0-1.74,1.45-2.61,3.29-2.61s3,.48,3,2.52v4.07c0,.58.19.68.68.68h.19v1Zm-2.23-4.07a12.76,12.76,0,0,1-1.74.39c-1,.19-1.84.39-1.84,1.36s.68,1.36,1.65,1.36,2-.48,2-1.65v-1.45Z" transform="translate(-351 -253)"></path><path d="M438.17,300.35a2.8,2.8,0,0,0-2.23-1c-.87,0-1.55.39-1.55,1.07s.58,1,1.74,1.16l.87.19c1.26.29,2.32.77,2.32,2.23,0,1.65-1.45,2.52-3.29,2.52a4.34,4.34,0,0,1-3.39-1.55l.87-1a3.2,3.2,0,0,0,2.61,1.36c1.07,0,1.84-.48,1.84-1.26s-.58-.87-1.36-1.07l-1.07-.19c-1.36-.29-2.52-.77-2.52-2.23,0-1.74,1.55-2.42,3-2.42a4,4,0,0,1,3,1.26Z" transform="translate(-351 -253)"></path><path d="M447.75,304.71a4,4,0,0,1-3.49,1.84c-2.23,0-3.78-1.55-3.78-4.16,0-2.42,1.55-4.16,3.78-4.16,2.42,0,3.58,1.84,3.58,4.16v.29h-5.91a2.46,2.46,0,0,0,2.52,2.61,2.5,2.5,0,0,0,2.32-1.36Zm-5.81-3.1h4.45a2.11,2.11,0,0,0-2.13-2.23A2.33,2.33,0,0,0,441.94,301.61Z" transform="translate(-351 -253)"></path><path d="M454,299.58a4.2,4.2,0,0,1-.48-.1,2.51,2.51,0,0,0-2.32,2.71v4.16h-1.36v-7.94h1.36v1.45a2.56,2.56,0,0,1,2.42-1.74.87.87,0,0,1,.48.1v1.36Z" transform="translate(-351 -253)"></path><path d="M458.7,306.36h-1.36l-2.81-7.94H456l1.65,4.84a6,6,0,0,0,.48,1.36c.1-.19.19-.77.48-1.45l1.65-4.75h1.36Z" transform="translate(-351 -253)"></path><path d="M464.32,296.77H463V295h1.36Zm0,9.59H463v-7.94h1.36Z" transform="translate(-351 -253)"></path><path d="M473.42,304.52a3.53,3.53,0,0,1-3.39,2c-2.32,0-3.78-1.65-3.78-4.16s1.55-4.16,3.78-4.16a3.22,3.22,0,0,1,3.29,2.13l-1.16.58a2.1,2.1,0,0,0-2.13-1.65c-1.45,0-2.32,1.16-2.32,3s1,3,2.32,3a2.39,2.39,0,0,0,2.32-1.45Z" transform="translate(-351 -253)"></path><path d="M481.75,304.71a4,4,0,0,1-3.49,1.84c-2.23,0-3.78-1.55-3.78-4.16,0-2.42,1.55-4.16,3.78-4.16,2.42,0,3.58,1.84,3.58,4.16v.29h-5.91a2.46,2.46,0,0,0,2.52,2.61,2.5,2.5,0,0,0,2.32-1.36Zm-5.81-3.1h4.46a2.11,2.11,0,0,0-2.13-2.23A2.33,2.33,0,0,0,475.94,301.61Z" transform="translate(-351 -253)"></path><path d="M491.53,298.22c2.23,0,3.78,1.65,3.78,4.16s-1.55,4.16-3.78,4.16-3.78-1.65-3.78-4.16S489.3,298.22,491.53,298.22Zm0,7.17c1.36,0,2.32-1.16,2.32-3s-1-3-2.32-3-2.32,1.16-2.32,3S490.08,305.39,491.53,305.39Z" transform="translate(-351 -253)"></path><path d="M500.73,299.48h-1.65v6.88h-1.36v-6.88h-1.65v-1.07h1.65v-1.65c0-1.26.58-1.94,2-1.94.48,0,.87.1,1.07.1v1.16a5.46,5.46,0,0,0-.68-.1,1,1,0,0,0-.87.29,1.5,1.5,0,0,0-.19.77v1.26h1.65Z" transform="translate(-351 -253)"></path><path d="M506.73,306.36V295h4.46a5.43,5.43,0,0,1,2.52.39,2.61,2.61,0,0,1,1.45,2.52,2.42,2.42,0,0,1-1.74,2.42,2.82,2.82,0,0,1,2.13,2.81,2.88,2.88,0,0,1-1.55,2.71,5.57,5.57,0,0,1-2.71.48Zm6-9.78a3.82,3.82,0,0,0-1.74-.19h-2.91v3.49H511a4.79,4.79,0,0,0,1.65-.19,1.62,1.62,0,0,0,1-1.55A1.55,1.55,0,0,0,512.74,296.58ZM508.19,305h3a5.55,5.55,0,0,0,1.74-.19,1.83,1.83,0,0,0,1.07-1.74,1.64,1.64,0,0,0-.87-1.55,4.49,4.49,0,0,0-2-.39h-3V305Z" transform="translate(-351 -253)"></path><path d="M517.1,298.42h1.36V303a3.57,3.57,0,0,0,.29,1.65,1.49,1.49,0,0,0,1.55.77,2.07,2.07,0,0,0,2-2.32v-4.55h1.36v7.94h-1.36v-1.16a2.57,2.57,0,0,1-2.52,1.36,2.25,2.25,0,0,1-1.94-.77c-.48-.58-.68-1.16-.68-2.91v-4.55Z" transform="translate(-351 -253)"></path><path d="M530.75,300.35a2.8,2.8,0,0,0-2.23-1c-.87,0-1.55.39-1.55,1.07s.58,1,1.74,1.16l.87.19c1.26.29,2.32.77,2.32,2.23,0,1.65-1.45,2.52-3.29,2.52a4.34,4.34,0,0,1-3.39-1.55l.87-1a3.2,3.2,0,0,0,2.61,1.36c1.16,0,1.84-.48,1.84-1.26s-.58-.87-1.36-1.07l-1.07-.19c-1.36-.29-2.52-.77-2.52-2.23,0-1.74,1.55-2.42,3-2.42a4,4,0,0,1,3,1.26Z" transform="translate(-351 -253)"></path><path d="M535.21,296.77h-1.36V295h1.36Zm0,9.59h-1.36v-7.94h1.36Z" transform="translate(-351 -253)"></path><path d="M544.31,306.36H543v-4.65c0-1.74-.68-2.32-1.84-2.32a2.14,2.14,0,0,0-2.13,2.32v4.55h-1.36v-7.94H539v1.16a2.67,2.67,0,0,1,2.52-1.36,2.4,2.4,0,0,1,2.23,1.07,4.07,4.07,0,0,1,.48,2.13v5Z" transform="translate(-351 -253)"></path><path d="M553.51,304.71a4,4,0,0,1-3.49,1.84c-2.23,0-3.78-1.55-3.78-4.16,0-2.42,1.55-4.16,3.78-4.16,2.42,0,3.58,1.84,3.58,4.16v.29H547.7a2.46,2.46,0,0,0,2.52,2.61,2.5,2.5,0,0,0,2.32-1.36Zm-5.91-3.1h4.46a2.11,2.11,0,0,0-2.13-2.23A2.4,2.4,0,0,0,547.6,301.61Z" transform="translate(-351 -253)"></path><path d="M560.1,300.35a2.8,2.8,0,0,0-2.23-1c-.87,0-1.55.39-1.55,1.07s.58,1,1.74,1.16l.87.19c1.26.29,2.32.77,2.32,2.23,0,1.65-1.45,2.52-3.29,2.52a4.34,4.34,0,0,1-3.39-1.55l.87-1a3.2,3.2,0,0,0,2.61,1.36c1.16,0,1.84-.48,1.84-1.26s-.58-.87-1.36-1.07l-1.07-.19c-1.36-.29-2.52-.77-2.52-2.23,0-1.74,1.55-2.42,3-2.42a4,4,0,0,1,3,1.26Z" transform="translate(-351 -253)"></path><path d="M567.65,300.35a2.8,2.8,0,0,0-2.23-1c-.87,0-1.55.39-1.55,1.07s.58,1,1.74,1.16l.87.19c1.26.29,2.32.77,2.32,2.23,0,1.65-1.45,2.52-3.29,2.52a4.34,4.34,0,0,1-3.39-1.55l.87-1a3.2,3.2,0,0,0,2.61,1.36c1.07,0,1.84-.48,1.84-1.26s-.58-.87-1.36-1.07l-1.07-.19c-1.36-.29-2.52-.77-2.52-2.23,0-1.74,1.55-2.42,3-2.42a4,4,0,0,1,3,1.26Z" transform="translate(-351 -253)"></path><rect height="1.94" width="1.55" x="219.27" y="51.42"></rect><path d="M580.34,304.52a3.53,3.53,0,0,1-3.39,2c-2.32,0-3.78-1.65-3.78-4.16s1.55-4.16,3.78-4.16a3.22,3.22,0,0,1,3.29,2.13l-1.16.58a2.1,2.1,0,0,0-2.13-1.65c-1.45,0-2.32,1.16-2.32,3s1,3,2.32,3a2.39,2.39,0,0,0,2.32-1.45Z" transform="translate(-351 -253)"></path><path d="M585.18,298.22c2.23,0,3.78,1.65,3.78,4.16s-1.55,4.16-3.78,4.16-3.78-1.65-3.78-4.16S583,298.22,585.18,298.22Zm0,7.17c1.36,0,2.32-1.16,2.32-3s-1-3-2.32-3-2.32,1.16-2.32,3S583.73,305.39,585.18,305.39Z" transform="translate(-351 -253)"></path><path d="M595.74,301.81a4.72,4.72,0,0,0-.19-1.45,1.45,1.45,0,0,0-1.45-1,2.18,2.18,0,0,0-1.94,2.32v4.65H590.8v-7.94h1.36v1.16a2.73,2.73,0,0,1,2.42-1.36,2.07,2.07,0,0,1,2.23,1.45,2.89,2.89,0,0,1,2.61-1.45,2.27,2.27,0,0,1,2.32,1.65,5.86,5.86,0,0,1,.19,1.45v5h-1.36v-4.55a4.72,4.72,0,0,0-.19-1.45,1.45,1.45,0,0,0-1.45-1,2.18,2.18,0,0,0-1.94,2.32v4.65h-1.36v-4.55Z" transform="translate(-351 -253)"></path></g></svg>