<?xml version="1.0" encoding="UTF-8" standalone="no"?>
<!DOCTYPE svg PUBLIC "-//W3C//DTD SVG 1.1//EN" "http://www.w3.org/Graphics/SVG/1.1/DTD/svg11.dtd">
<svg width="100%" height="100%" viewBox="0 0 270 270" version="1.1" xmlns="http://www.w3.org/2000/svg" xmlns:xlink="http://www.w3.org/1999/xlink" xml:space="preserve" style="fill-rule:evenodd;clip-rule:evenodd;stroke-linejoin:round;stroke-miterlimit:1.41421;">
    <g transform="matrix(1,0,0,1,-15.1019,-15.1019)">
        <path d="M62.3,282.3C37.7,282.3 17.7,262.3 17.7,237.7L17.7,62.3C17.7,37.7 37.7,17.7 62.3,17.7L237.8,17.7C262.4,17.7 282.4,37.7 282.4,62.3L282.4,237.8C282.4,262.4 262.4,282.4 237.8,282.4L62.3,282.4L62.3,282.3Z" style="fill:rgb(105,105,105);fill-rule:nonzero;stroke-width:3px;stroke:rgb(42,42,42);"/>
    </g>
    <g transform="matrix(1.06072,0,0,1.06072,-8.24925,-8.24925)">
        <g transform="matrix(1.37484,0,0,1.37484,-217.531,-246.211)">
            <path d="M309.786,320.996C309.786,322.799 308.316,324.266 306.507,324.266L206.396,324.266C204.587,324.266 203.117,322.799 203.117,320.996L203.117,250.367L309.786,250.367L309.786,320.996ZM274.425,228.049C277.294,228.049 279.618,230.378 279.618,233.246C279.618,236.115 277.294,238.439 274.425,238.439C271.557,238.439 269.232,236.115 269.232,233.246C269.232,230.378 271.557,228.049 274.425,228.049ZM288.924,228.049C291.793,228.049 294.121,230.378 294.121,233.246C294.121,236.115 291.793,238.439 288.924,238.439C286.055,238.439 283.732,236.115 283.732,233.246C283.732,230.378 286.055,228.049 288.924,228.049ZM303.427,228.049C306.296,228.049 308.62,230.378 308.62,233.246C308.62,236.115 306.296,238.439 303.427,238.439C300.559,238.439 298.23,236.115 298.23,233.246C298.23,230.378 300.559,228.049 303.427,228.049ZM306.507,221.251L206.396,221.251C199.605,221.251 194.081,226.775 194.081,233.565L194.081,320.996C194.081,327.782 199.605,333.302 206.396,333.302L306.507,333.302C313.298,333.302 318.822,327.782 318.822,320.996L318.822,245.848L318.822,233.565C318.822,226.775 313.298,221.251 306.507,221.251Z" style="fill:white;fill-rule:nonzero;"/>
        </g>
        <g transform="matrix(1.37484,0,0,1.37484,-217.531,-246.211)">
            <path d="M260.355,270.393C264.093,270.393 267.133,267.351 267.133,263.614C267.133,259.875 264.093,256.833 260.355,256.833C256.618,256.833 253.579,259.875 253.579,263.614C253.579,267.351 256.618,270.393 260.355,270.393Z" style="fill:rgb(140,173,231);fill-rule:nonzero;"/>
        </g>
        <g transform="matrix(1.37484,0,0,1.37484,-217.531,-246.211)">
            <path d="M284.769,291.697C286.794,291.697 288.44,290.052 288.44,288.026C288.44,286.001 286.794,284.353 284.769,284.353C282.744,284.353 281.098,286.001 281.098,288.026C281.098,290.052 282.744,291.697 284.769,291.697Z" style="fill:rgb(140,173,231);fill-rule:nonzero;"/>
        </g>
        <g transform="matrix(1.37484,0,0,1.37484,-217.531,-246.211)">
            <path d="M277.617,310.37C277.621,310.37 277.621,310.37 277.625,310.37C278.984,310.367 280.259,309.834 281.204,308.885C283.194,306.91 283.202,303.687 281.208,301.682C279.223,299.708 275.993,299.716 274.025,301.691C272.044,303.672 272.044,306.899 274.025,308.88C274.987,309.84 276.262,310.37 277.617,310.37Z" style="fill:rgb(140,173,231);fill-rule:nonzero;"/>
        </g>
        <g transform="matrix(1.37484,0,0,1.37484,-217.531,-246.211)">
            <path d="M260.361,307.074C257.4,307.074 254.991,309.481 254.991,312.437C254.991,315.393 257.4,317.8 260.361,317.8C263.317,317.8 265.721,315.393 265.721,312.437C265.721,309.481 263.317,307.074 260.361,307.074Z" style="fill:rgb(140,173,231);fill-rule:nonzero;"/>
        </g>
        <g transform="matrix(1.37484,0,0,1.37484,-217.531,-246.211)">
            <path d="M239.103,301.292C238.035,302.359 237.448,303.778 237.448,305.287C237.448,306.798 238.04,308.219 239.107,309.282C240.206,310.383 241.653,310.932 243.096,310.932C244.543,310.932 245.99,310.381 247.093,309.28C249.286,307.08 249.291,303.498 247.089,301.285C244.883,299.092 241.3,299.09 239.103,301.292Z" style="fill:rgb(140,173,231);fill-rule:nonzero;"/>
        </g>
        <g transform="matrix(1.37484,0,0,1.37484,-217.531,-246.211)">
            <path d="M235.944,293.952C239.218,293.952 241.878,291.294 241.878,288.015C241.869,284.75 239.209,282.092 235.948,282.092C232.679,282.092 230.018,284.755 230.018,288.026C230.018,291.294 232.674,293.952 235.944,293.952Z" style="fill:rgb(140,173,231);fill-rule:nonzero;"/>
        </g>
        <g transform="matrix(1.37484,0,0,1.37484,-217.531,-246.211)">
            <path d="M243.091,276.97C244.684,276.97 246.281,276.363 247.504,275.15C249.908,272.718 249.904,268.781 247.49,266.372C246.317,265.198 244.755,264.554 243.096,264.554L243.091,264.554C241.428,264.556 239.871,265.202 238.701,266.376C237.528,267.554 236.879,269.118 236.884,270.779C236.888,272.436 237.532,273.991 238.701,275.154C239.91,276.363 241.499,276.97 243.091,276.97Z" style="fill:rgb(140,173,231);fill-rule:nonzero;"/>
        </g>
    </g>
</svg>
